<svg id="Layer_1" data-name="Layer 1" xmlns="http://www.w3.org/2000/svg" viewBox="0 0 25 20"><defs><style>.cls-1{fill:#818181;}</style></defs><title>card</title><path class="cls-1" d="M315.92,386a2.09,2.09,0,0,1,2.08,2.08v15.83a2.09,2.09,0,0,1-2.08,2.08H295.08a2.09,2.09,0,0,1-2.08-2.08V388.08a2.09,2.09,0,0,1,2.08-2.08Zm-20.83,2c-.11,0,0-.13-.13,0s0,0,0,.13V391h21v-2.92c0-.11.13,0,0-.13s0,0-.13,0Zm20.83,16c.11,0,0,.13.13,0s0,0,0-.13V396H295v7.92c0,.11-.13,0,0,.13s0,0,.13,0ZM296,403v-2h4v2Zm5,0v-2h5v2Z" transform="translate(-293 -386)"/></svg>