<svg id="Layer_1" data-name="Layer 1" xmlns="http://www.w3.org/2000/svg" viewBox="0 0 358.47 51.02"><defs><style>.cls-1{fill:#fff;}</style></defs><title>logo</title><path class="cls-1" d="M273.75,374.34h-6v-1.09h13.18l14.34,36.34,14.07-36.34h13v1.09h-6v45.9h6v1.09h-19.4v-1.09h6.42V376.93h-.14l-16.67,43.31h-.61L275,377.75h-.14v36.82c0,4.51.61,5.67,4.23,5.67h2.73v1.09H267.74v-1.09h1.78c3.62,0,4.23-1.16,4.23-5.67Z" transform="translate(-127.71 -371.13)"/><path class="cls-1" d="M333,376a3.48,3.48,0,1,1-3.48,3.48A3.5,3.5,0,0,1,333,376Z" transform="translate(-127.71 -371.13)"/><path class="cls-1" d="M330,394.42h-5.4v-1.09H330c3.28,0,4.51,0,5.74-1.5v7h.14c1.78-3.28,5.19-7,10.18-7,7.31,0,9.36,3.69,9.36,7.72v20.7h5.4v1.09H344.31v-1.09h5.4V397.9c0-3.76-1.84-5-4-5-5.74,0-8.67,5.74-9.9,8.06v19.26H341v1.09H324.64v-1.09H330Z" transform="translate(-127.71 -371.13)"/><path class="cls-1" d="M368.35,394.42h-5.46v-1.09h5.46c2.19,0,4.37-.14,5.74-1.5v28.41h5.46v1.09H362.89v-1.09h5.46ZM371.22,376a3.48,3.48,0,1,1-3.48,3.48A3.5,3.5,0,0,1,371.22,376Z" transform="translate(-127.71 -371.13)"/><path class="cls-1" d="M384.06,411.43H385c.55,3.48,2.32,9.63,9.49,9.63,3.76,0,6.63-2.46,6.63-6.35,0-5.4-4.1-5.46-7.72-5.87-4.44-.48-8.74-1.09-8.74-8.2,0-4.92,3.21-8.81,8.54-8.81,3.69,0,6.22,2.39,6.9,2.39.41,0,.48-.48.48-1.43v-.55h1l.27,8.13h-.89c-.48-3.89-2.53-7.44-7.92-7.44-3.48,0-6.28,1.91-6.28,5.46s2.66,4.78,7.17,5.05l2.32.14c5.53.34,7.79,3.35,7.79,8.06,0,6.35-4.24,10.52-9.49,10.52s-7-2.94-8.4-2.94c-.89,0-.68,1.09-.82,2.53h-1Z" transform="translate(-127.71 -371.13)"/><path class="cls-1" d="M413.91,394.42H408v-1.09c7.1.14,9.7-2.87,10.86-9.56h.82v9.56h9.43v1.09h-9.43v23c0,2.8,1.16,3.69,3.35,3.69,3.42,0,4.92-3.14,5.33-4.3l1,.21a7.47,7.47,0,0,1-7.51,5.19c-4.78,0-7.92-1.57-7.92-6.08Z" transform="translate(-127.71 -371.13)"/><path class="cls-1" d="M439.19,410.75c-.07,4.85.61,10.31,7,10.31a10.81,10.81,0,0,0,10.93-9.43h1.09c-1.09,6.28-5.74,10.52-12,10.52-8,0-13.59-6.15-13.59-15.16,0-6.63,5.33-15.16,12.77-15.16,8.06,0,12.23,9,12.23,11.88a.54.54,0,0,1-.61.61H439.19Zm11.88-9.43c0-4.37-1.16-8.4-5.67-8.4-4.78,0-6.22,4-6.22,8.4v1.91h11.41a.43.43,0,0,0,.48-.48Z" transform="translate(-127.71 -371.13)"/><path class="cls-1" d="M467,394.42h-5.74v-1.09H467c2.19,0,4.37-.14,5.74-1.5v8.06h.14c.82-3.07,3.21-8.06,8.81-8.06,2.53,0,4.51,1.64,4.51,4a3,3,0,0,1-3.14,3.21c-2.25,0-3-1.16-3-3a3.28,3.28,0,0,1,1.5-2.94,1.53,1.53,0,0,0-1-.2c-2.8,0-7.85,4.44-7.85,13.32v14h6.22v1.09H461.25v-1.09H467Z" transform="translate(-127.71 -371.13)"/><path class="cls-1" d="M133.72,374.34h-6v-1.09h13.18l14.34,36.34,14.07-36.34h13v1.09h-6v45.9h6v1.09h-19.4v-1.09h6.42V376.93h-.14L152.5,420.24h-.61L135,377.75h-.14v36.82c0,4.51.61,5.67,4.23,5.67h2.73v1.09H127.71v-1.09h1.78c3.62,0,4.23-1.16,4.23-5.67Z" transform="translate(-127.71 -371.13)"/><path class="cls-1" d="M244.86,410.75c-.07,4.85.61,10.31,7,10.31a10.81,10.81,0,0,0,10.93-9.43h1.09c-1.09,6.28-5.74,10.52-12,10.52-8,0-13.59-6.15-13.59-15.16,0-6.63,5.33-15.16,12.77-15.16,8.06,0,12.23,9,12.23,11.88a.54.54,0,0,1-.61.61H244.86Zm11.88-9.43c0-4.37-1.16-8.4-5.67-8.4-4.78,0-6.22,4-6.22,8.4v1.91h11.41a.43.43,0,0,0,.48-.48Z" transform="translate(-127.71 -371.13)"/><path class="cls-1" d="M200.52,391.82c8.81,0,14.48,7.31,14.48,15.16s-5.67,15.16-14.48,15.16S186,414.84,186,407,191.71,391.82,200.52,391.82Zm7.92,12.5c0-5.94-.27-11.41-7.92-11.41s-7.92,5.46-7.92,11.41v5.33c0,5.94.27,11.41,7.92,11.41s7.92-5.46,7.92-11.41Z" transform="translate(-127.71 -371.13)"/><path class="cls-1" d="M230.3,420.24V371.13c-1.37,1.57-3.55,1.71-5.74,1.71H219.1v1.09h5.46v24.86h-.14c-1.19-3.1-4.3-6.71-8.95-6.94v1.1c5.41.31,9.08,5.72,9.08,10.56v8a9.28,9.28,0,0,1-9.08,9.56v1.09a10.19,10.19,0,0,0,8.95-5.81h.14v5H235v-1.09Z" transform="translate(-127.71 -371.13)"/></svg>