<?xml version="1.0" encoding="utf-8"?>
<!-- Generator: Adobe Illustrator 20.1.0, SVG Export Plug-In . SVG Version: 6.00 Build 0)  -->
<svg version="1.1" id="Layer_1" xmlns="http://www.w3.org/2000/svg" xmlns:xlink="http://www.w3.org/1999/xlink" x="0px" y="0px"
	 viewBox="0 0 358.5 51" style="enable-background:new 0 0 358.5 51;" xml:space="preserve">
<style type="text/css">
	.st0{fill:#808080;}
</style>
<title>logo</title>
<path class="st0" d="M146,3.2h-6V2.1h13.2l14.3,36.3l14.1-36.3h13v1.1h-6v45.9h6v1.1h-19.4v-1.1h6.4V5.8h-0.1l-16.7,43.3h-0.6
	L147.3,6.6h-0.1v36.8c0,4.5,0.6,5.7,4.2,5.7h2.7v1.1H140v-1.1h1.8c3.6,0,4.2-1.2,4.2-5.7V3.2z"/>
<path class="st0" d="M205.3,4.9c1.9,0,3.5,1.6,3.5,3.5s-1.6,3.5-3.5,3.5c-1.9,0-3.5-1.6-3.5-3.5C201.8,6.4,203.4,4.9,205.3,4.9z"/>
<path class="st0" d="M202.3,23.3h-5.4v-1.1h5.4c3.3,0,4.5,0,5.7-1.5v7h0.1c1.8-3.3,5.2-7,10.2-7c7.3,0,9.4,3.7,9.4,7.7v20.7h5.4v1.1
	h-16.5v-1.1h5.4V26.8c0-3.8-1.8-5-4-5c-5.7,0-8.7,5.7-9.9,8.1v19.3h5.2v1.1h-16.4v-1.1h5.4V23.3z"/>
<path class="st0" d="M240.6,23.3h-5.5v-1.1h5.5c2.2,0,4.4-0.1,5.7-1.5v28.4h5.5v1.1h-16.7v-1.1h5.5V23.3z M243.5,4.9
	c1.9,0,3.5,1.6,3.5,3.5s-1.6,3.5-3.5,3.5c-1.9,0-3.5-1.6-3.5-3.5C240,6.4,241.6,4.9,243.5,4.9z"/>
<path class="st0" d="M256.4,40.3h0.9c0.5,3.5,2.3,9.6,9.5,9.6c3.8,0,6.6-2.5,6.6-6.4c0-5.4-4.1-5.5-7.7-5.9
	c-4.4-0.5-8.7-1.1-8.7-8.2c0-4.9,3.2-8.8,8.5-8.8c3.7,0,6.2,2.4,6.9,2.4c0.4,0,0.5-0.5,0.5-1.4v-0.5h1l0.3,8.1h-0.9
	c-0.5-3.9-2.5-7.4-7.9-7.4c-3.5,0-6.3,1.9-6.3,5.5s2.7,4.8,7.2,5l2.3,0.1c5.5,0.3,7.8,3.4,7.8,8.1c0,6.4-4.2,10.5-9.5,10.5
	s-7-2.9-8.4-2.9c-0.9,0-0.7,1.1-0.8,2.5h-1L256.4,40.3z"/>
<path class="st0" d="M286.2,23.3h-5.9v-1.1c7.1,0.1,9.7-2.9,10.9-9.6h0.8v9.6h9.4v1.1H292v23c0,2.8,1.2,3.7,3.4,3.7
	c3.4,0,4.9-3.1,5.3-4.3l1,0.2c-1,3.2-4.1,5.4-7.5,5.2c-4.8,0-7.9-1.6-7.9-6.1L286.2,23.3z"/>
<path class="st0" d="M311.5,39.6c-0.1,4.9,0.6,10.3,7,10.3c5.5,0.1,10.2-4,10.9-9.4h1.1c-1.1,6.3-5.7,10.5-12,10.5
	c-8,0-13.6-6.1-13.6-15.2c0-6.6,5.3-15.2,12.8-15.2c8.1,0,12.2,9,12.2,11.9c0,0.3-0.2,0.6-0.5,0.6c0,0-0.1,0-0.2,0h-17.8V39.6z
	 M323.4,30.2c0-4.4-1.2-8.4-5.7-8.4c-4.8,0-6.2,4-6.2,8.4v1.9h11.4c0.2,0,0.5-0.1,0.5-0.4c0,0,0-0.1,0-0.1V30.2z"/>
<path class="st0" d="M339.3,23.3h-5.7v-1.1h5.7c2.2,0,4.4-0.1,5.7-1.5v8.1h0.1c0.8-3.1,3.2-8.1,8.8-8.1c2.5,0,4.5,1.6,4.5,4
	c0.1,1.7-1.1,3.1-2.8,3.2c-0.1,0-0.2,0-0.4,0c-2.2,0-3-1.2-3-3c-0.1-1.2,0.5-2.3,1.5-2.9c-0.3-0.2-0.7-0.2-1-0.2
	c-2.8,0-7.9,4.4-7.9,13.3v14h6.2v1.1h-17.7v-1.1h5.8V23.3z"/>
<path class="st0" d="M6,3.2H0V2.1h13.2l14.3,36.3L41.6,2.1h13v1.1h-6v45.9h6v1.1H35.2v-1.1h6.4V5.8h-0.1L24.8,49.1h-0.6L7.3,6.6H7.2
	v36.8c0,4.5,0.6,5.7,4.2,5.7h2.7v1.1H0v-1.1h1.8C5.4,49.1,6,48,6,43.4V3.2z"/>
<path class="st0" d="M117.2,39.6c-0.1,4.9,0.6,10.3,7,10.3c5.5,0.1,10.2-4,10.9-9.4h1.1c-1.1,6.3-5.7,10.5-12,10.5
	c-8,0-13.6-6.1-13.6-15.2c0-6.6,5.3-15.2,12.8-15.2c8.1,0,12.2,9,12.2,11.9c0,0.3-0.2,0.6-0.5,0.6c0,0-0.1,0-0.2,0h-17.8V39.6z
	 M129,30.2c0-4.4-1.2-8.4-5.7-8.4c-4.8,0-6.2,4-6.2,8.4v1.9h11.4c0.2,0,0.5-0.1,0.5-0.4c0,0,0-0.1,0-0.1V30.2z"/>
<path class="st0" d="M72.8,20.7c8.8,0,14.5,7.3,14.5,15.2S81.6,51,72.8,51s-14.5-7.3-14.5-15.1S64,20.7,72.8,20.7z M80.7,33.2
	c0-5.9-0.3-11.4-7.9-11.4s-7.9,5.5-7.9,11.4v5.3c0,5.9,0.3,11.4,7.9,11.4s7.9-5.5,7.9-11.4V33.2z"/>
<path class="st0" d="M102.6,49.1V0c-1.4,1.6-3.6,1.7-5.7,1.7h-5.5v1.1h5.5v24.9h-0.1c-1.2-3.1-4.3-6.7-8.9-6.9v1.1
	c5.4,0.3,9.1,5.7,9.1,10.6v8c0.2,5.1-3.9,9.4-9,9.6c0,0-0.1,0-0.1,0V51c3.8-0.1,7.3-2.3,8.9-5.8h0.1v5h10.4v-1.1L102.6,49.1z"/>
</svg>
