<svg id="Layer_1" data-name="Layer 1" xmlns="http://www.w3.org/2000/svg" viewBox="0 0 16.95 20"><defs><style>.cls-1{fill:#818181;}</style></defs><title>Untitled-2</title><path class="cls-1" d="M314.86,393.21a4.84,4.84,0,0,1,0,2.06c-.65,3.3-2.75,4.73-6.31,4.73H308c-.19,0-.35.28-.49.41a1.13,1.13,0,0,0-.27.58l0,.27-.61,3.89,0,.18a.82.82,0,0,1-.27.48.75.75,0,0,1-.5.19H303a.45.45,0,0,1-.37-.17.5.5,0,0,1-.1-.4l.3-1.87.3-1.87.3-1.87c.13-.83.23-1.22.3-1.63s.2-.18.48-.18h1.46a11.5,11.5,0,0,0,2.63-.47,6.85,6.85,0,0,0,3.2-1.72,6.93,6.93,0,0,0,1.73-2.8,10.11,10.11,0,0,0,.39-1.51.26.26,0,0,1,0-.1s0,0,0,0l.07,0A2.79,2.79,0,0,1,314.86,393.21Zm-1.92-3.15a7.91,7.91,0,0,1-.51,2.63,5.42,5.42,0,0,1-3.37,3.52,8.77,8.77,0,0,1-2.81.47h-2a1.2,1.2,0,0,0-1.32,1.07c0,.06-.33,2.14-.95,6,0,.07-.05.22-.13.22h-3.29c-.16,0-.3-.17-.41-.29a.64.64,0,0,1-.13-.48l2.59-16.45a.91.91,0,0,1,.31-.55.88.88,0,0,1,.57-.23h6.67a5.87,5.87,0,0,1,1.09.15,7.47,7.47,0,0,1,1.24.36,3.6,3.6,0,0,1,2.46,3.56Z" transform="translate(-298 -386)"/></svg>